# xmcd CD database file
#
# Track frame offsets:
#	150
#	16578
#	33728
#	45761
#	60691
#	81977
#	92712
#	113710
#	131694
#	146040
#	161727
#	180922
#	196101
#	209770
#
# Disc length: 2975 seconds
#
# Revision: 0
# Processed by: cddbd v1.5.2PL0 Copyright (c) Steve Scherf et al.
# Submitted via: CDex 1.51
#
DISCID=b90b9d0e
DTITLE=Townes Van Zant - The Legendary Singer Songwriter CD1
DYEAR=2006
DGENRE=Country
TTITLE0=Pancho And Lefty
TTITLE1=Loretta
TTITLE2=Tecumseh Valley
TTITLE3=Cocaine Blues
TTITLE4=For Sake Of The Song
TTITLE5=Waitin' Round To Die
TTITLE6=Sad Cinderella
TTITLE7=Rake
TTITLE8=High Low And In Between
TTITLE9=No Place To Fall
TTITLE10=At My Window
TTITLE11=Two Girls
TTITLE12=St. John The Gambler
TTITLE13=Pueblo Waltz
EXTD=YEAR: 2006
EXTT0=
EXTT1=
EXTT2=
EXTT3=
EXTT4=
EXTT5=
EXTT6=
EXTT7=
EXTT8=
EXTT9=
EXTT10=
EXTT11=
EXTT12=
EXTT13=
PLAYORDER=
